<svg viewBox="0 0 200 250" xmlns="http://www.w3.org/2000/svg">
  <!-- Soil -->
  <ellipse cx="100" cy="200" rx="80" ry="30" fill="#8B6F47"/>
  <path d="M 30 200 Q 30 210 50 215 Q 70 220 100 220 Q 130 220 150 215 Q 170 210 170 200" fill="#6B5437"/>
  
  <!-- Trunk -->
  <rect x="90" y="100" width="20" height="100" fill="#8B6F47" rx="4"/>
  
  <!-- Lower foliage - very large -->
  <ellipse cx="50" cy="130" rx="40" ry="48" fill="#4CAF50"/>
  <ellipse cx="150" cy="130" rx="40" ry="48" fill="#4CAF50"/>
  
  <!-- Middle foliage -->
  <ellipse cx="60" cy="90" rx="42" ry="50" fill="#66BB6A"/>
  <ellipse cx="140" cy="90" rx="42" ry="50" fill="#66BB6A"/>
  
  <!-- Upper foliage -->
  <ellipse cx="100" cy="50" rx="48" ry="55" fill="#81C784"/>
  <ellipse cx="70" cy="70" rx="35" ry="40" fill="#81C784"/>
  <ellipse cx="130" cy="70" rx="35" ry="40" fill="#81C784"/>
  
  <!-- Top crown -->
  <ellipse cx="100" cy="35" rx="25" ry="30" fill="#A5D6A7"/>
  <ellipse cx="85" cy="45" rx="18" ry="22" fill="#A5D6A7"/>
  <ellipse cx="115" cy="45" rx="18" ry="22" fill="#A5D6A7"/>
</svg>